<svg width="14" height="16" fill="none" xmlns="http://www.w3.org/2000/svg"><path d="M11.95 11.823A6.89 6.89 0 0014 6.926a6.89 6.89 0 00-2.05-4.897A7.003 7.003 0 009.68.527a7.066 7.066 0 00-5.359 0 7.004 7.004 0 00-2.27 1.502A6.89 6.89 0 000 6.926a6.89 6.89 0 002.05 4.897l1.521 1.483 2.043 1.963.133.117a2.01 2.01 0 002.64-.117l2.435-2.344 1.128-1.102zM7 9.89a3.017 3.017 0 01-2.12-.87A2.95 2.95 0 014 6.924c0-.787.316-1.541.88-2.098A3.017 3.017 0 017 3.956c.796 0 1.56.313 2.122.87A2.95 2.95 0 0110 6.922a2.95 2.95 0 01-.878 2.098A3.017 3.017 0 017 9.89z" fill="#FFA800"/></svg>