<svg width="14" height="16" viewBox="0 0 14 16" fill="none" xmlns="http://www.w3.org/2000/svg">
<path d="M11.9504 11.8233C13.2633 10.5242 14.0009 8.7627 14.0009 6.926C14.0009 5.0893 13.2633 3.32776 11.9504 2.02868C11.3005 1.38554 10.5289 0.875346 9.67953 0.527255C8.83019 0.179164 7.91981 0 7.00043 0C6.08104 0 5.17066 0.179164 4.32132 0.527255C3.47198 0.875346 2.70032 1.38554 2.05043 2.02868C0.737526 3.32776 0 5.0893 0 6.926C0 8.7627 0.737526 10.5242 2.05043 11.8233L3.57143 13.3058L5.61443 15.2688L5.74743 15.3855C6.52243 16.0066 7.65743 15.967 8.38743 15.2688L10.8224 12.925L11.9504 11.8233ZM7.00043 9.8899C6.20478 9.8899 5.44172 9.57733 4.87911 9.02093C4.3165 8.46453 4.00043 7.7099 4.00043 6.92303C4.00043 6.13617 4.3165 5.38153 4.87911 4.82514C5.44172 4.26874 6.20478 3.95616 7.00043 3.95616C7.79608 3.95616 8.55914 4.26874 9.12175 4.82514C9.68435 5.38153 10.0004 6.13617 10.0004 6.92303C10.0004 7.7099 9.68435 8.46453 9.12175 9.02093C8.55914 9.57733 7.79608 9.8899 7.00043 9.8899Z" fill="#FFA800"/>
</svg>
